<?xml version="1.0" encoding="UTF-8"?>
<!-- Uploaded to: SVG Repo, www.svgrepo.com, Generator: SVG Repo Mixer Tools -->
<svg width="20" height="20" fill="none" version="1.1" viewBox="0 0 .6 .6" xmlns="http://www.w3.org/2000/svg">
 <g transform="matrix(.024545 0 0 .024545 .0054546 .0054546)" fill="current">
  <path d="m5 6c0-0.55229 0.44772-1 1-1 0.55229 0 1 0.44771 1 1s-0.44771 1-1 1c-0.55228 0-1-0.44771-1-1z"/>
  <path d="m5 10c0-0.55229 0.44772-1 1-1 0.55229 0 1 0.44771 1 1 0 0.5523-0.44771 1-1 1-0.55228 0-1-0.4477-1-1z"/>
  <path d="m10 9c-0.55228 0-1 0.44771-1 1 0 0.5523 0.44772 1 1 1h4c0.5523 0 1-0.4477 1-1 0-0.55229-0.4477-1-1-1z"/>
  <path d="m17 10c0-0.55229 0.4477-1 1-1s1 0.44771 1 1c0 0.5523-0.4477 1-1 1s-1-0.4477-1-1z"/>
  <path d="m9 6c0-0.55229 0.44771-1 1-1 0.5523 0 1 0.44771 1 1s-0.4477 1-1 1c-0.55229 0-1-0.44771-1-1z"/>
  <path d="m13 6c0-0.55229 0.4477-1 1-1s1 0.44771 1 1-0.4477 1-1 1-1-0.44771-1-1z"/>
  <path d="m17 6c0-0.55229 0.4477-1 1-1s1 0.44771 1 1-0.4477 1-1 1-1-0.44771-1-1z"/>
  <path d="m20 1c1.6569 0 3 1.3432 3 3v8c0 1.6569-1.3431 3-3 3h-16c-1.6568 0-3-1.3431-3-3v-8c0-1.6568 1.3432-3 3-3zm0 2c0.5523 0 1 0.44771 1 1v8c0 0.5523-0.4477 1-1 1h-16c-0.55228 0-1-0.4477-1-1v-8c0-0.55228 0.44772-1 1-1z" clip-rule="evenodd" fill-rule="evenodd"/>
  <path d="m16.192 21.243c0.3905 0.3905 0.3905 1.0237 0 1.4142s-1.0237 0.3905-1.4142 0l-2.8284-2.8284-2.8285 2.8285c-0.39052 0.3905-1.0237 0.3905-1.4142 0-0.39053-0.3905-0.39053-1.0237 0-1.4142l2.8284-2.8284s1e-4 -1e-4 0 0c0.7811-0.7811 2.0474-0.7812 2.8285-1e-4z"/>
 </g>
</svg>
